# xmcd
#
# Track frame offsets:
#	150
#	14151
#	31118
#	52081
#	68434
#	85582
#	101287
#	115302
#	132290
#	153445
#	169780
#	186967
#
# Disc length: 2702 seconds
#
# Revision: 0
# Processed by: cddbd v1.5.2PL0 Copyright (c) Steve Scherf et al.
# Submitted via: audiograbber 1.83.01
#
DISCID=950a8c0c
DTITLE=Tammy Cochran - CB 20585R
DYEAR=1900
DGENRE=Country
TTITLE0=Love Won't Let Me (Vocals)
TTITLE1=Angels In Waiting (Vocals)
TTITLE2=Life Happened (Vocals)
TTITLE3=What Kind Of Woman Would I Be (Vocals)
TTITLE4=If You Can (Vocals)
TTITLE5=So What (Vocals)
TTITLE6=Love Won't Let Me
TTITLE7=Angels In Waiting
TTITLE8=Life Happened
TTITLE9=What Kind Of Woman Would I Be
TTITLE10=If You Can
TTITLE11=So What
EXTD=
EXTT0=
EXTT1=
EXTT2=
EXTT3=
EXTT4=
EXTT5=
EXTT6=
EXTT7=
EXTT8=
EXTT9=
EXTT10=
EXTT11=
PLAYORDER=
